<?xml version="1.0" encoding="utf-8"?>
<!-- Generator: Adobe Illustrator 22.0.1, SVG Export Plug-In . SVG Version: 6.00 Build 0)  -->
<svg version="1.1" id="Ebene_1" xmlns="http://www.w3.org/2000/svg" xmlns:xlink="http://www.w3.org/1999/xlink" x="0px" y="0px"
	 viewBox="0 0 1366 768" enable-background="new 0 0 1366 768" xml:space="preserve">
<g>
	<rect x="183" y="274" fill="#FFFFFF" width="1000" height="220"/>
	<g>
		<g>
			<polygon points="484.1,343.1 452.1,280.1 421.1,280.1 421.1,404.1 452.1,404.1 452.1,341.2 484.1,404.1 515.1,404.1 515.1,280.1 
				484.1,280.1 			"/>
			<polygon points="1006.9,280.6 975.4,280.6 975.4,311.6 1006.9,311.6 1006.9,404.1 1037.9,404.1 1037.9,311.6 1068.4,311.6 
				1068.4,280.6 1037.9,280.6 			"/>
			<polygon points="1144.9,280.6 1113.9,280.6 1083.9,280.6 1083.9,311.6 1113.9,311.6 1113.9,404.1 1144.9,404.1 1144.9,311.6 
				1176.9,311.6 1176.9,280.6 			"/>
			<path d="M375.1,280.1h-31l-30,120l-1,4h31l4-16h23l4,16h31l-1-4L375.1,280.1z M355.8,357.6l3.9-15.5l3.9,15.5H355.8z"/>
			<polygon points="243.1,325.4 220.1,280.1 189.1,280.1 189.1,404.1 220.1,404.1 220.1,341.2 243.1,386.4 243.1,386.4 243.1,386.4 
				266.1,341.2 266.1,404.1 297.1,404.1 297.1,280.1 266.1,280.1 			"/>
			<path d="M560.1,280.2L560.1,280.2l-31,0v124h31v0c33.7-0.7,60.8-28.2,60.8-62C620.9,308.3,593.8,280.8,560.1,280.2z M560.1,371.9
				v-59.4c16.1,0.4,29,13.5,29,29.7C589.1,358.3,576.2,371.5,560.1,371.9z"/>
			<path d="M777.1,280.2L777.1,280.2l-31,0v124h31v0c33.7-0.7,60.8-28.2,60.8-62C837.9,308.3,810.8,280.8,777.1,280.2z M777.1,371.9
				v-59.4c16.1,0.4,29,13.5,29,29.7C806.1,358.3,793.2,371.5,777.1,371.9z"/>
			<polygon points="656.1,311.6 640.1,280.1 609.1,280.1 640.6,342.1 640.6,342.1 640.6,404.1 671.6,404.1 671.6,342.1 671.6,342.1 
				703.1,280.1 672.1,280.1 			"/>
			<path d="M909.1,280.1c-34.2,0-62,27.8-62,62c0,34.2,27.8,62,62,62c34.2,0,62-27.8,62-62C971.1,307.9,943.4,280.1,909.1,280.1z
				 M909.1,373.1c-17.1,0-31-13.9-31-31c0-17.1,13.9-31,31-31s31,13.9,31,31C940.1,359.3,926.2,373.1,909.1,373.1z"/>
		</g>
		<g>
			<path d="M189.9,486.5c-0.4-0.4-0.6-1-0.6-1.6V430c0-0.7,0.2-1.3,0.6-1.7c0.4-0.4,1-0.6,1.6-0.6h15.2c3.6,0,6.9,0.8,9.8,2.4
				c2.9,1.6,5.1,3.9,6.8,6.8c1.6,2.9,2.4,6.2,2.4,9.8c0,3.7-0.8,7-2.4,9.9c-1.6,2.9-3.9,5.1-6.8,6.8c-2.9,1.6-6.2,2.4-9.8,2.4h-12.9
				v19c0,0.7-0.2,1.2-0.6,1.6c-0.4,0.4-1,0.6-1.7,0.6C190.8,487.1,190.3,486.9,189.9,486.5z M206.7,461.3c2.8,0,5.3-0.6,7.4-1.9
				c2.2-1.2,3.9-3,5.1-5.2c1.2-2.2,1.9-4.7,1.9-7.5c0-2.8-0.6-5.3-1.9-7.4c-1.2-2.2-3-3.9-5.1-5.1c-2.2-1.2-4.7-1.9-7.4-1.9h-12.9
				v29H206.7z"/>
			<path d="M274.8,486.5c-0.4-0.4-0.6-1-0.6-1.6V430c0-0.7,0.2-1.2,0.6-1.6c0.4-0.4,1-0.6,1.6-0.6c0.7,0,1.2,0.2,1.6,0.6
				c0.4,0.4,0.6,1,0.6,1.6v25.1h38.4V430c0-0.7,0.2-1.2,0.6-1.6c0.4-0.4,1-0.6,1.6-0.6c0.6,0,1.1,0.2,1.6,0.6c0.5,0.4,0.7,1,0.7,1.6
				v54.8c0,0.7-0.2,1.2-0.7,1.6c-0.5,0.4-1,0.6-1.6,0.6c-0.7,0-1.2-0.2-1.6-0.6c-0.4-0.4-0.6-1-0.6-1.6v-25.6h-38.4v25.6
				c0,0.7-0.2,1.2-0.6,1.6c-0.4,0.4-1,0.6-1.6,0.6C275.7,487.1,275.2,486.9,274.8,486.5z"/>
			<path d="M387.6,483.9c-4.6-2.7-8.3-6.3-10.9-10.9c-2.7-4.6-4-9.8-4-15.5c0-5.7,1.3-10.8,4-15.5c2.7-4.6,6.3-8.3,10.9-10.9
				s9.8-4,15.5-4c5.7,0,10.8,1.3,15.5,4c4.6,2.7,8.3,6.3,10.9,10.9c2.7,4.6,4,9.8,4,15.5c0,5.7-1.3,10.9-4,15.5
				c-2.7,4.6-6.3,8.3-10.9,10.9c-4.6,2.7-9.8,4-15.5,4C397.5,487.9,392.3,486.5,387.6,483.9z M416.3,479.9c4-2.3,7.1-5.4,9.3-9.3
				c2.3-4,3.4-8.4,3.4-13.2c0-4.8-1.1-9.2-3.4-13.1c-2.3-4-5.4-7.1-9.3-9.3c-4-2.3-8.3-3.4-13.1-3.4c-4.9,0-9.3,1.1-13.2,3.4
				c-4,2.3-7.1,5.4-9.3,9.3c-2.3,4-3.4,8.3-3.4,13.1c0,4.9,1.1,9.3,3.4,13.2c2.3,4,5.4,7.1,9.3,9.3c4,2.3,8.4,3.4,13.2,3.4
				C408,483.3,412.4,482.2,416.3,479.9z"/>
			<path d="M520.2,428.3c0.4,0.4,0.6,0.9,0.6,1.5c0,0.6-0.2,1.1-0.6,1.5c-0.4,0.4-0.9,0.6-1.5,0.6h-19.2v53c0,0.7-0.2,1.2-0.6,1.6
				c-0.4,0.4-1,0.6-1.6,0.6c-0.7,0-1.2-0.2-1.6-0.6c-0.4-0.4-0.6-1-0.6-1.6v-53h-19.2c-0.6,0-1.1-0.2-1.5-0.6
				c-0.4-0.4-0.6-0.9-0.6-1.5c0-0.6,0.2-1.1,0.6-1.5c0.4-0.4,0.9-0.6,1.5-0.6h43C519.3,427.7,519.8,427.9,520.2,428.3z"/>
			<path d="M576.5,483.9c-4.6-2.7-8.3-6.3-10.9-10.9c-2.7-4.6-4-9.8-4-15.5c0-5.7,1.3-10.8,4-15.5c2.7-4.6,6.3-8.3,10.9-10.9
				s9.8-4,15.5-4c5.7,0,10.8,1.3,15.5,4c4.6,2.7,8.3,6.3,10.9,10.9c2.7,4.6,4,9.8,4,15.5c0,5.7-1.3,10.9-4,15.5
				c-2.7,4.6-6.3,8.3-10.9,10.9c-4.6,2.7-9.8,4-15.5,4C586.3,487.9,581.1,486.5,576.5,483.9z M605.2,479.9c4-2.3,7.1-5.4,9.3-9.3
				c2.3-4,3.4-8.4,3.4-13.2c0-4.8-1.1-9.2-3.4-13.1c-2.3-4-5.4-7.1-9.3-9.3c-4-2.3-8.3-3.4-13.1-3.4c-4.9,0-9.3,1.1-13.2,3.4
				c-4,2.3-7.1,5.4-9.3,9.3c-2.3,4-3.4,8.3-3.4,13.1c0,4.9,1.1,9.3,3.4,13.2c2.3,4,5.4,7.1,9.3,9.3c4,2.3,8.4,3.4,13.2,3.4
				C596.9,483.3,601.2,482.2,605.2,479.9z"/>
			<path d="M717.3,458.8c0.4,0.4,0.6,0.9,0.6,1.6v19.3c0,0.4,0,0.6-0.1,0.9c-0.1,0.2-0.2,0.5-0.5,0.7c-4.4,4.4-10.6,6.5-18.7,6.5
				c-5.3,0-10.3-1.4-14.8-4.1c-4.6-2.8-8.2-6.5-10.9-11.2c-2.7-4.7-4-9.7-4-15.2s1.3-10.5,4-15.1c2.7-4.7,6.3-8.4,10.8-11.1
				c4.5-2.8,9.5-4.1,14.9-4.1c7.1,0,13.4,2.3,18.8,6.8c0.5,0.4,0.7,0.9,0.7,1.5c0,0.6-0.2,1.2-0.6,1.6c-0.4,0.5-1,0.7-1.7,0.7
				c-0.6,0-1.2-0.3-1.9-0.9c-3.9-3.4-8.9-5.2-15.3-5.2c-4.5,0-8.6,1.2-12.5,3.6c-3.9,2.4-7,5.6-9.2,9.5c-2.3,4-3.4,8.2-3.4,12.7
				c0,4.7,1.1,9,3.4,13c2.3,4,5.3,7.1,9.2,9.5c3.9,2.3,8.1,3.5,12.6,3.5c5.5,0,10.4-1.6,14.7-4.7v-16.3h-12.8
				c-0.7,0-1.2-0.2-1.6-0.6c-0.4-0.4-0.6-0.9-0.6-1.5c0-0.6,0.2-1,0.6-1.4c0.4-0.4,1-0.6,1.6-0.6h15
				C716.3,458.2,716.8,458.4,717.3,458.8z"/>
			<path d="M805.9,485.4c0,0.6-0.2,1-0.6,1.3c-0.4,0.3-1.1,0.5-1.9,0.5c-0.5,0-0.9-0.1-1.2-0.3c-0.3-0.2-0.6-0.5-0.8-0.9l-14-22.3
				H786h-12.2v21.3c0,0.7-0.2,1.2-0.6,1.6c-0.4,0.4-1,0.6-1.7,0.6c-0.7,0-1.2-0.2-1.6-0.6c-0.4-0.4-0.6-1-0.6-1.6V430
				c0-0.7,0.2-1.3,0.6-1.7c0.4-0.4,1-0.6,1.6-0.6H786c3.6,0,6.9,0.8,9.8,2.3c2.9,1.5,5.1,3.6,6.8,6.4c1.6,2.7,2.4,5.9,2.4,9.3
				c0,4.2-1.2,7.7-3.5,10.8c-2.3,3-5.4,5.1-9.3,6.2l13.1,20.9C805.7,484.3,805.9,484.9,805.9,485.4z M786,459c2.8,0,5.3-0.6,7.4-1.7
				c2.2-1.1,3.9-2.7,5.1-4.7c1.2-2,1.9-4.3,1.9-6.8c0-2.6-0.6-4.9-1.9-7c-1.2-2.1-3-3.6-5.1-4.8c-2.2-1.1-4.7-1.7-7.4-1.7h-12.2V459
				H786z"/>
			<path d="M899.2,484.8c0,0.6-0.2,1.1-0.7,1.6s-1,0.7-1.6,0.7c-1,0-1.7-0.5-2.1-1.4l-5.6-13.5h-30.9l-5.6,13.5
				c-0.4,1-1.1,1.4-2.1,1.4c-0.7,0-1.3-0.2-1.7-0.7c-0.4-0.5-0.6-1-0.6-1.6c0-0.4,0.1-0.7,0.2-1l23-54.5c0.4-1.1,1.1-1.6,2.2-1.6
				c1,0,1.7,0.5,2.2,1.6l23.1,54.5C899.1,484.1,899.2,484.5,899.2,484.8z M887.4,468.1l-13.8-32.8L860,468.1H887.4z"/>
			<path d="M947.3,486.5c-0.4-0.4-0.6-1-0.6-1.6V430c0-0.7,0.2-1.3,0.6-1.7c0.4-0.4,1-0.6,1.6-0.6h15.2c3.6,0,6.9,0.8,9.8,2.4
				c2.9,1.6,5.1,3.9,6.8,6.8c1.6,2.9,2.4,6.2,2.4,9.8c0,3.7-0.8,7-2.4,9.9c-1.6,2.9-3.9,5.1-6.8,6.8c-2.9,1.6-6.2,2.4-9.8,2.4h-12.9
				v19c0,0.7-0.2,1.2-0.6,1.6c-0.4,0.4-1,0.6-1.7,0.6C948.3,487.1,947.8,486.9,947.3,486.5z M964.2,461.3c2.8,0,5.3-0.6,7.4-1.9
				c2.2-1.2,3.9-3,5.1-5.2c1.2-2.2,1.9-4.7,1.9-7.5c0-2.8-0.6-5.3-1.9-7.4c-1.2-2.2-3-3.9-5.1-5.1c-2.2-1.2-4.7-1.9-7.4-1.9h-12.9
				v29H964.2z"/>
			<path d="M1032.2,486.5c-0.4-0.4-0.6-1-0.6-1.6V430c0-0.7,0.2-1.2,0.6-1.6c0.4-0.4,1-0.6,1.6-0.6c0.7,0,1.2,0.2,1.6,0.6
				c0.4,0.4,0.6,1,0.6,1.6v25.1h38.4V430c0-0.7,0.2-1.2,0.6-1.6c0.4-0.4,1-0.6,1.6-0.6c0.6,0,1.1,0.2,1.6,0.6c0.5,0.4,0.7,1,0.7,1.6
				v54.8c0,0.7-0.2,1.2-0.7,1.6c-0.5,0.4-1,0.6-1.6,0.6c-0.7,0-1.2-0.2-1.6-0.6c-0.4-0.4-0.6-1-0.6-1.6v-25.6h-38.4v25.6
				c0,0.7-0.2,1.2-0.6,1.6c-0.4,0.4-1,0.6-1.6,0.6C1033.2,487.1,1032.7,486.9,1032.2,486.5z"/>
			<path d="M1172.8,428.3c0.4,0.4,0.6,0.9,0.6,1.5c0,0.6-0.1,1-0.4,1.4l-21,33.6v19.9c0,0.7-0.2,1.2-0.6,1.6c-0.4,0.4-1,0.6-1.6,0.6
				c-0.7,0-1.2-0.2-1.6-0.6c-0.4-0.4-0.6-1-0.6-1.6v-19.9l-21-33.6c-0.3-0.6-0.5-1-0.5-1.4c0-0.6,0.2-1.1,0.6-1.5
				c0.4-0.4,0.9-0.6,1.6-0.6c0.7,0,1.3,0.3,1.8,0.9l19.7,32.1l19.4-31.5c0.4-0.6,0.7-0.9,1-1.1c0.3-0.2,0.7-0.3,1.2-0.3
				C1171.9,427.7,1172.4,427.9,1172.8,428.3z"/>
		</g>
	</g>
</g>
</svg>
